<svg width="27" height="33" viewBox="0 0 27 33" fill="none" xmlns="http://www.w3.org/2000/svg">
<path d="M24 8.11905H21C21 3.85238 17.7 0.5 13.5 0.5C9.3 0.5 6 3.85238 6 8.11905H3C1.35 8.11905 0 9.49048 0 11.1667V29.4524C0 31.1286 1.35 32.5 3 32.5H24C25.65 32.5 27 31.1286 27 29.4524V11.1667C27 9.49048 25.65 8.11905 24 8.11905ZM13.5 3.54762C16.05 3.54762 18 5.52857 18 8.11905H9C9 5.52857 10.95 3.54762 13.5 3.54762ZM24 29.4524H3V11.1667H24V29.4524ZM13.5 17.2619C10.95 17.2619 9 15.281 9 12.6905H6C6 16.9571 9.3 20.3095 13.5 20.3095C17.7 20.3095 21 16.9571 21 12.6905H18C18 15.281 16.05 17.2619 13.5 17.2619Z" fill="black"/>
</svg>
