<svg width="33" height="32" viewBox="0 0 33 32" fill="none" xmlns="http://www.w3.org/2000/svg">
<path d="M31 30.5L21.3333 20.8333M2 12.7778C2 14.2588 2.29171 15.7253 2.85847 17.0936C3.42523 18.4619 4.25595 19.7051 5.30318 20.7524C6.35042 21.7996 7.59368 22.6303 8.96196 23.1971C10.3302 23.7638 11.7968 24.0556 13.2778 24.0556C14.7588 24.0556 16.2253 23.7638 17.5936 23.1971C18.9619 22.6303 20.2051 21.7996 21.2524 20.7524C22.2996 19.7051 23.1303 18.4619 23.6971 17.0936C24.2638 15.7253 24.5556 14.2588 24.5556 12.7778C24.5556 11.2968 24.2638 9.83024 23.6971 8.46196C23.1303 7.09368 22.2996 5.85042 21.2524 4.80318C20.2051 3.75595 18.9619 2.92523 17.5936 2.35847C16.2253 1.79171 14.7588 1.5 13.2778 1.5C11.7968 1.5 10.3302 1.79171 8.96196 2.35847C7.59368 2.92523 6.35042 3.75595 5.30318 4.80318C4.25595 5.85042 3.42523 7.09368 2.85847 8.46196C2.29171 9.83024 2 11.2968 2 12.7778Z" stroke="black" stroke-width="3" stroke-linecap="round" stroke-linejoin="round"/>
</svg>
